<svg width="41" height="41" viewBox="0 0 41 41" fill="none" xmlns="http://www.w3.org/2000/svg">
<g clip-path="url(#clip0_323_541)">
<path d="M6.04547 0C3.69694 0 2.83594 0.867406 2.83594 3.20953V31.5034C2.83594 31.7712 2.85003 32.0172 2.87053 32.2452C2.93075 32.759 2.93075 33.26 3.40994 33.8199C3.45606 33.8865 3.93781 34.2401 3.93781 34.2401C4.19791 34.367 4.37728 34.4605 4.67069 34.5797L18.9118 40.5452C19.6459 40.8796 19.9611 41.0205 20.4941 41H20.5005C21.0399 41.0205 21.3551 40.8808 22.0893 40.5452L36.3227 34.5797C36.6238 34.4605 36.7955 34.3657 37.062 34.2401C37.062 34.2401 37.5437 33.8724 37.5898 33.8199C38.0703 33.26 38.0703 32.759 38.1292 32.2452C38.1497 32.0184 38.1638 31.7724 38.1638 31.5111V3.21081C38.1638 0.868688 37.2964 0.00128125 34.9543 0.00128125L6.04547 0ZM28.862 5.31078H30.0215C31.9575 5.31078 32.9056 6.2525 32.9056 8.21537V11.4249H30.5571V8.34094C30.5571 7.71441 30.2701 7.42741 29.6615 7.42741H29.2617C28.6352 7.42741 28.3482 7.71441 28.3482 8.34094V18.2693C28.3482 18.8959 28.6352 19.1829 29.2617 19.1829H29.7089C30.3085 19.1829 30.5955 18.8959 30.5955 18.2693V14.719H32.944V18.3834C32.944 20.3373 31.9844 21.2995 30.042 21.2995H28.862C26.9132 21.2995 25.9574 20.3309 25.9574 18.3834V8.23203C25.9574 6.27813 26.9119 5.31078 28.862 5.31078ZM8.04038 5.44659H13.3588V7.62856H10.4286V12.0719H13.2525V14.2488H10.4286V18.9856H13.3998V21.1688H8.04038V5.44659ZM14.5594 5.44659H18.3109C20.252 5.44659 21.2129 6.41394 21.2129 8.36784V12.546C21.2129 14.4999 20.2507 15.4621 18.3109 15.4621H16.9566V21.1675H14.5594V5.44659ZM22.2943 5.44659H24.6825V21.1688H22.2943V5.44659ZM16.9489 7.56066V13.3519H17.9368C18.5377 13.3519 18.8247 13.0598 18.8247 12.4307V8.48059C18.8247 7.85406 18.5377 7.55938 17.9368 7.55938L16.9489 7.56066ZM10.362 24.9037H10.7156L10.7963 24.9177H10.9245L10.9911 24.9383H11.0577L11.1179 24.9575L11.1846 24.9716L11.2371 24.9857L11.3563 25.0126L11.4242 25.0318L11.4703 25.0459L11.5228 25.0664L11.5894 25.0869L11.6356 25.1061L11.7035 25.133L11.7637 25.1599L11.8162 25.1919L11.8764 25.2188L11.9226 25.2509L11.9905 25.2855L12.043 25.3175L12.0955 25.3444L12.1481 25.3841L12.2032 25.4187L12.2493 25.4584L12.4094 25.5802L12.3684 25.6327L12.3223 25.6788L12.2813 25.7262L12.2352 25.7788L12.2032 25.8249L12.1622 25.8723L12.116 25.9184L12.075 25.9709L12.043 26.0171L11.9956 26.0722L11.9559 26.1183L11.9097 26.1708L11.8688 26.2182L11.8367 26.2708L11.7893 26.3169L11.7496 26.372L11.7035 26.4181L11.6625 26.4642L11.6163 26.4322L11.5638 26.3848L11.5087 26.3528L11.4101 26.2861L11.3498 26.2515L11.2948 26.2195L11.2345 26.1849L11.1884 26.158L11.1359 26.1324L11.0282 26.0914L10.9616 26.0798L10.9091 26.0658L10.8489 26.0517L10.781 26.0376L10.7143 26.0312H10.6477L10.5696 26.0171H10.4414L10.3748 26.0235H10.3082L10.2416 26.044L10.189 26.0581L10.1288 26.0786L10.0686 26.0901L10.0135 26.117L9.94688 26.1439L9.85462 26.2105L9.79953 26.2426L9.75341 26.2836L9.70728 26.3156L9.65988 26.3566L9.62784 26.4027L9.57275 26.4488L9.50613 26.5424L9.47409 26.5949L9.44719 26.6551L9.41516 26.7025L9.38056 26.7628L9.36006 26.823L9.33444 26.8755L9.31394 26.9421L9.30753 27.0087L9.28831 27.0702L9.27422 27.1369V27.2035L9.26781 27.2701V27.4239L9.27422 27.4905V27.543L9.28062 27.6097L9.29216 27.6699L9.31266 27.7224L9.31906 27.7903L9.33956 27.8428L9.35878 27.889L9.38569 27.9556L9.42028 28.0222L9.44591 28.0696L9.51253 28.176L9.55353 28.2285L9.58556 28.2759L9.64066 28.3156L9.67269 28.3617L9.71881 28.4027L9.82644 28.4835L9.87256 28.5091L9.92509 28.5437L9.98659 28.5706L10.0532 28.5962L10.0993 28.6231L10.2326 28.6628L10.2928 28.6692L10.3594 28.6898L10.4261 28.6962H10.7131L10.7938 28.6898H10.854L10.9219 28.6628L10.9885 28.6564L11.0552 28.6372L11.1077 28.6231L11.1679 28.5962L11.2204 28.5706L11.2807 28.5437L11.3217 28.5168L11.3742 28.4848V27.8902H10.4325V26.937H12.5606V29.0728L12.5145 29.1049L12.4684 29.1446L12.421 29.1792L12.3684 29.2189L12.3159 29.2458L12.2698 29.2868L12.1622 29.3534L12.0955 29.3855L11.9892 29.4521L11.9213 29.479L11.8688 29.5046L11.8085 29.5315L11.6753 29.5841L11.6227 29.611L11.501 29.6507L11.4408 29.6648L11.3806 29.6853L11.314 29.7058L11.2614 29.7173L11.0616 29.7583L11.0001 29.7647L10.8668 29.7788L10.7938 29.7852L10.7272 29.7903L10.6541 29.7968H10.321L10.2544 29.7852H10.1877L10.1211 29.7711H10.0609L9.99428 29.7506L9.79953 29.7109L9.747 29.6904L9.68678 29.684L9.62016 29.6571L9.49844 29.6174L9.37928 29.5648L9.31266 29.5379L9.26653 29.511L9.19991 29.4854L9.1525 29.4444L9.08588 29.4188L9.04616 29.3842L8.99362 29.3522L8.886 29.2714L8.83347 29.2368L8.79247 29.1971L8.73994 29.1561L8.65281 29.0703L8.60669 29.0293L8.56697 28.9832L8.51956 28.9357L8.48753 28.8832L8.44653 28.8435L8.4145 28.7884L8.3735 28.7359L8.34147 28.6898L8.30688 28.6372L8.27484 28.5757L8.24794 28.5232L8.22103 28.463L8.19541 28.4104L8.14288 28.2887L8.12238 28.2426L8.09547 28.1824L8.08137 28.1222L8.06984 28.0696L8.05575 28.003L8.03525 27.9415L8.02116 27.8749L8.01475 27.8223L8.00322 27.7557L7.98913 27.6366L7.97503 27.5033V27.1497L7.98913 27.0818V27.0152L8.00962 26.9485V26.8819L8.02884 26.8217L8.04934 26.7551L8.07625 26.6359L8.09547 26.5693L8.11597 26.5091L8.19669 26.3284L8.22231 26.2759L8.24922 26.2157L8.28381 26.1542L8.30944 26.1016L8.34403 26.0555L8.41066 25.9479L8.45038 25.8953L8.49137 25.8492L8.52341 25.7967L8.61053 25.7096L8.65025 25.6622L8.69766 25.616L8.73737 25.5699L8.79247 25.5289L8.88472 25.4482L8.93725 25.4085L8.99234 25.3739L9.03847 25.3342L9.091 25.2996L9.14609 25.2739L9.20631 25.2393L9.27294 25.2073L9.31906 25.1727L9.38569 25.1471L9.44591 25.1202L9.50613 25.0882L9.56122 25.0741L9.62784 25.0536L9.68038 25.0267L9.74059 25.0151L9.80081 24.9946L9.86744 24.9805L9.92253 24.96L9.98916 24.9459H10.0558L10.116 24.9267H10.1826L10.2493 24.9126H10.3095L10.362 24.9037ZM30.8428 24.9177H31.1964L31.2771 24.9318H31.404L31.4706 24.9511H31.5436L31.6103 24.9716L31.7294 24.9985L31.796 25.0126L31.8562 25.0241L31.9242 25.0446L31.9844 25.0651L32.0369 25.0792L32.0971 25.0984L32.1637 25.1189L32.2163 25.1458L32.2829 25.1714L32.3444 25.1983L32.4046 25.2329L32.4507 25.2586L32.511 25.2932L32.5712 25.3188L32.6263 25.3534L32.6865 25.3931L32.7326 25.4277L32.8402 25.5084L32.8928 25.5404L32.8518 25.593L32.8197 25.6481L32.78 25.6942L32.739 25.7467L32.707 25.8069L32.6724 25.862L32.6327 25.9082L32.5917 25.9607L32.5597 26.0158L32.5187 26.0683L32.4866 26.1144L32.4456 26.167L32.4136 26.2285L32.3726 26.281L32.3329 26.3271L32.2919 26.3797L32.2598 26.4347L32.2073 26.3938L32.1458 26.3617L32.0997 26.3271L32.0472 26.2951L31.9869 26.2682L31.9318 26.2336L31.8716 26.208L31.8255 26.1811L31.7589 26.1554L31.7115 26.1285L31.6589 26.108L31.5398 26.0683L31.4065 26.0273L31.2067 25.9876L31.14 25.9812L31.0183 25.9671H30.8787L30.8056 25.9812L30.739 25.9953L30.6788 26.0094L30.6262 26.035L30.5788 26.0619L30.5263 26.108L30.4866 26.1682L30.4597 26.2297V26.3886L30.4943 26.4617L30.5199 26.5027L30.5609 26.5424L30.6275 26.577L30.6801 26.609L30.7403 26.6359L30.8069 26.6615L30.894 26.682L30.9402 26.7025L30.9952 26.7166L31.0619 26.7307L31.1144 26.7499L31.1746 26.764L31.2477 26.7845L31.3143 26.805L31.3873 26.8243L31.4603 26.8383L31.5206 26.8588L31.5936 26.8781L31.6602 26.8922L31.7204 26.9062L31.9216 26.9665L31.9741 26.987L32.0407 27.0075L32.101 27.0331L32.1676 27.0677L32.3008 27.1202L32.3611 27.1548L32.4687 27.2214L32.5673 27.2945L32.6288 27.3342L32.675 27.3803L32.7211 27.4354L32.7685 27.4815L32.8005 27.5277L32.8479 27.5943L32.88 27.6417L32.9069 27.7083L32.9325 27.748L32.953 27.8147L32.9735 27.8698L32.9876 27.93L33.0132 28.0632L33.0196 28.1298L33.026 28.1901V28.3502L33.0196 28.4233L33.0055 28.5565L32.9914 28.6231L32.9722 28.6833L32.9581 28.75L32.9376 28.8166L32.9184 28.8768L32.8915 28.9242L32.8646 28.9844L32.8326 29.037L32.7916 29.0844L32.7249 29.1907L32.6442 29.2843L32.5981 29.3163L32.5456 29.3637L32.5046 29.4034L32.452 29.4431L32.3995 29.47L32.347 29.511L32.2855 29.5431L32.1663 29.6033L32.0997 29.6302L32.0395 29.6558L31.9728 29.6763L31.9126 29.6968L31.8575 29.7109L31.7243 29.7365L31.6782 29.7506L31.6115 29.7647H31.5449L31.4847 29.7788H31.4181L31.3514 29.7929H30.8761L30.6762 29.7724L30.6096 29.7583L30.5494 29.7519L30.4161 29.7263L30.3431 29.7122L30.2829 29.6981L30.2162 29.6776L30.1483 29.6635L30.0881 29.6443L30.0215 29.6238L29.9549 29.5969L29.9023 29.5777L29.8357 29.5572L29.7691 29.5303L29.7217 29.5046L29.6551 29.4841L29.6025 29.4495L29.5359 29.4239L29.4834 29.3893L29.436 29.3573L29.3693 29.3227L29.3232 29.2971L29.2707 29.2561L29.2182 29.224L29.1631 29.183L29.1169 29.1433L29.0644 29.1023L29.017 29.0703L28.9645 29.0229L29.0055 28.9703L29.0516 28.9242L29.0913 28.8768L29.1387 28.8243L29.1707 28.7782L29.2117 28.7256L29.2579 28.6782L29.2976 28.6321L29.345 28.5796L29.377 28.5322L29.4244 28.486L29.4642 28.4335L29.5052 28.3861L29.5513 28.3336L29.5833 28.2874L29.6307 28.24L29.6768 28.1875L29.723 28.2285L29.7845 28.2682L29.8306 28.3079L29.8972 28.3425L29.9433 28.3771L30.0036 28.4168L30.0587 28.4514L30.1189 28.4771L30.165 28.5117L30.2252 28.5309L30.2918 28.5578L30.3469 28.5847L30.4072 28.6039L30.4597 28.6308L30.5263 28.6513L30.5865 28.6705L30.6532 28.691L30.7198 28.6974L30.7813 28.7179L30.8479 28.7243H30.9209L30.9812 28.7436H31.3412L31.4014 28.732L31.468 28.7179L31.5142 28.7115L31.5692 28.691L31.6154 28.6654L31.6756 28.6244L31.7102 28.5783L31.7358 28.5257L31.7563 28.4642V28.3105L31.7294 28.2503L31.6974 28.1978L31.6564 28.158L31.5962 28.117L31.55 28.0978L31.4898 28.0709L31.4232 28.044L31.3502 28.012L31.3027 27.9979L31.2502 27.9838L31.1836 27.9633L31.1375 27.9517L31.0708 27.9312L31.0042 27.9248L30.9363 27.8979L30.8697 27.8915L30.7967 27.8723L30.7364 27.8582L30.6698 27.8377L30.6032 27.8236L30.5366 27.8044L30.4763 27.7839L30.4097 27.7698L30.3572 27.7493L30.2355 27.7096L30.1688 27.6827L30.1022 27.6635L29.969 27.6084L29.9087 27.5763L29.8421 27.5417L29.796 27.5097L29.7345 27.4751L29.6884 27.4431L29.6282 27.4085L29.541 27.3214L29.4949 27.2817L29.4142 27.1881L29.3796 27.142L29.354 27.0959L29.313 27.0344L29.2937 26.9882L29.2322 26.8281L29.2207 26.7615L29.2066 26.7013V26.641L29.1925 26.5744V26.3015L29.2066 26.1682L29.2207 26.1132L29.2322 26.0529L29.2528 26.0004L29.2668 25.9338L29.2937 25.8877L29.3194 25.8197L29.3463 25.7672L29.3719 25.7006L29.4065 25.6545L29.4526 25.6019L29.4872 25.5468L29.5397 25.5007L29.5795 25.4546L29.6205 25.3995L29.6807 25.3534L29.7217 25.3188L29.7742 25.2791L29.8806 25.2124L29.9408 25.1778L30.0625 25.1176L30.115 25.0984L30.1752 25.0779L30.2419 25.051L30.3085 25.0318L30.3559 25.0177L30.4161 25.0036L30.4687 24.9895L30.5289 24.9754L30.5955 24.9613L30.7287 24.9498L30.7902 24.9434L30.8428 24.9177ZM15.0603 24.9639H16.2686L16.3237 25.0856L16.3493 25.1381L16.3698 25.2048L16.3967 25.265L16.4159 25.3175L16.4505 25.3777L16.4902 25.4994L16.5248 25.5597L16.5773 25.6788L16.5914 25.7313L16.6978 25.9722L16.7183 26.0324L16.7452 26.0875L16.7772 26.1478L16.7913 26.208L16.8259 26.2746L16.8374 26.3348L16.8989 26.454L16.9246 26.5014L16.9515 26.568L16.972 26.6346L16.9912 26.6807L17.0258 26.7474L17.0463 26.8025L17.0719 26.8691L17.0924 26.9152L17.1193 26.9818L17.1795 27.101L17.1988 27.1612L17.2128 27.2227L17.2398 27.2829L17.2718 27.3355L17.2987 27.4021L17.3256 27.4623L17.3448 27.5148L17.3999 27.6366L17.4191 27.6968L17.446 27.757L17.4665 27.8172L17.4922 27.8698L17.5268 27.9312L17.5524 27.9915L17.5793 28.044L17.5934 28.1106L17.6459 28.2298L17.6728 28.2849L17.692 28.3451L17.7471 28.4642L17.7792 28.5309L17.7933 28.5834L17.8278 28.6513L17.8394 28.6974L17.8663 28.7641L17.9009 28.8307L17.9265 28.8768L17.947 28.9434L17.9739 28.9985L17.9931 29.0652L18.0277 29.1113L18.0674 29.2445L18.0943 29.2919L18.12 29.3586L18.1546 29.4111L18.1815 29.4777L18.193 29.5379L18.2135 29.5905L18.2404 29.6507L18.2724 29.7058H16.9387L16.9066 29.6507L16.8861 29.5905L16.8592 29.5303L16.8336 29.4636L16.8195 29.4111L16.7644 29.2919L16.7452 29.2368L16.6927 29.1177L16.6722 29.0652L16.6453 28.9985L16.6055 28.8768L16.5786 28.8243H14.7234L14.6978 28.8845L14.6773 28.9396L14.6503 29.0062L14.6247 29.0664L14.6106 29.119L14.5837 29.1856L14.5581 29.2381L14.5376 29.2983L14.5107 29.3534L14.4851 29.4201L14.4646 29.4662L14.4377 29.5328L14.4184 29.5994L14.3915 29.6468L14.371 29.7135H13.0501L13.0693 29.652L13.1244 29.5328L13.1436 29.4662L13.1641 29.4137L13.1987 29.3534L13.2243 29.2932L13.2512 29.2381L13.2653 29.1779L13.2909 29.1113L13.3255 29.0588L13.3512 28.9985L13.3922 28.8768L13.4524 28.7577L13.4729 28.6974L13.4985 28.6449L13.519 28.5834L13.5997 28.404L13.6266 28.3374L13.6458 28.2849L13.6663 28.2247L13.7009 28.1696L13.7266 28.1029L13.7471 28.0427L13.7676 27.9902L13.7932 27.9236L13.8278 27.8762L13.8483 27.8095L13.8739 27.757L13.8944 27.6968L13.9213 27.6302L13.9533 27.5776L13.9738 27.511L13.9995 27.4636L14.02 27.397L14.0469 27.3303L14.0725 27.2842L14.0994 27.2176L14.1199 27.1625L14.1455 27.0959L14.166 27.0497L14.2006 26.9831L14.2263 26.9165L14.2532 26.864L14.2673 26.8038L14.2929 26.7423L14.3275 26.682L14.3531 26.6295L14.3672 26.5629L14.3941 26.5027L14.421 26.4476L14.4735 26.3284L14.4928 26.2759L14.5478 26.1426L14.5735 26.0952L14.6004 26.0286L14.6209 25.9761L14.6401 25.9094L14.667 25.8492L14.7016 25.7967L14.7272 25.7301L14.7477 25.6827L14.7682 25.616L14.7938 25.5635L14.8284 25.5033L14.8489 25.4367L14.8682 25.3816L14.8951 25.3149L14.9207 25.2688L14.9553 25.2022L14.9758 25.1356L14.995 25.0894L15.0219 25.0228L15.0603 24.9639ZM18.8118 24.9985H20.1328L20.1738 25.051L20.2404 25.1586L20.2725 25.2188L20.3071 25.265L20.3391 25.3252L20.3737 25.3777L20.4057 25.4392L20.4403 25.4918L20.4723 25.5379L20.5069 25.5981L20.539 25.6532L20.5864 25.7057L20.6056 25.7582L20.6466 25.8185L20.6786 25.8736L20.7196 25.9197L20.7465 25.9799L20.7786 26.0324L20.8196 26.0875L20.8388 26.1401L20.8862 26.2003L20.9848 26.3604L21.0117 26.413L21.0515 26.4655L21.0861 26.518L21.1181 26.5795L21.2193 26.7384L21.2513 26.7999L21.2859 26.8524L21.3257 26.7999L21.3526 26.732L21.3923 26.6859L21.4269 26.6257L21.4589 26.5795L21.4858 26.5129L21.5319 26.4655L21.5665 26.4053L21.5934 26.3592L21.6255 26.3041L21.6665 26.2438L21.6985 26.1977L21.7331 26.1311L21.7651 26.085L21.8061 26.0235L21.8318 25.9773L21.8663 25.9107L21.8984 25.871L21.933 25.8159L21.9727 25.7493L22.0073 25.7032L22.0329 25.6429L22.0739 25.5955L22.1059 25.5289L22.1405 25.4892L22.1803 25.4367L22.2148 25.37L22.2469 25.3226L22.2815 25.2624L22.3135 25.2163L22.3481 25.1497L22.3878 25.1022L22.4147 25.042L22.4493 24.9959H23.7908V29.7609H22.5352V26.9575L22.5031 27.0049L22.4621 27.0715L22.4301 27.1112L22.3891 27.1638L22.3635 27.2304L22.3225 27.2778L22.2904 27.3239L22.2494 27.3906L22.1828 27.4841L22.1431 27.5366L22.1085 27.6033L22.0688 27.6507L22.0342 27.6968L22.0086 27.7634L21.9676 27.8095L21.9355 27.8569L21.8945 27.9236L21.8625 27.9697L21.8215 28.0222L21.7895 28.0824L21.7626 28.1298L21.7228 28.1824L21.6882 28.2426L21.6485 28.2887L21.6075 28.3438L21.5819 28.3963L21.5473 28.4566L21.5076 28.504L21.4666 28.5565L21.441 28.6231L21.3936 28.6628L21.3679 28.7154L21.3269 28.7833L21.2949 28.8294H21.268L21.2283 28.7692L21.1937 28.7141L21.1617 28.6539L21.1271 28.6077L21.0873 28.5475L21.0527 28.495L21.013 28.4399L20.9784 28.3874L20.9464 28.3272L20.9118 28.281L20.8657 28.2195L20.8388 28.167L20.7991 28.1068L20.7645 28.0607L20.7324 28.0004L20.6914 27.9453L20.6594 27.8787L20.6184 27.8326L20.5864 27.7724L20.5518 27.7173L20.5198 27.6571L20.4788 27.6109L20.4467 27.5507L20.4057 27.4982L20.3801 27.4431L20.3391 27.3906L20.3071 27.3303L20.2661 27.2842L20.234 27.2227L20.193 27.1702L20.1674 27.11L20.12 27.0638L20.0944 27.0023L20.0534 26.9498V29.7596H18.8195V25.0408L18.8118 24.9985ZM24.7363 24.9985H28.4942V26.0734H25.9843V26.8409H28.2393V27.8557H25.9843V28.6692H28.5263V29.7506H24.7428V25.0395L24.7363 24.9985ZM15.6472 26.4591L15.6267 26.5193L15.6074 26.5744L15.5805 26.641L15.5536 26.7013L15.5344 26.7615L15.4793 26.8806L15.4537 26.9473L15.4332 27.0023L15.4127 27.069L15.3871 27.1151L15.3666 27.1817L15.3397 27.2483L15.314 27.2958L15.2935 27.3624L15.2679 27.4149L15.2474 27.4815L15.2128 27.5417L15.1987 27.5943L15.1731 27.6609L15.1462 27.7224L15.1257 27.7749L15.1001 27.8416H16.2007L16.175 27.7749L16.1545 27.7147L16.102 27.593L16.0815 27.5328L16.0546 27.4802L16.0354 27.4136L16.0085 27.3534L15.988 27.2932L15.9623 27.2381L15.9418 27.1779L15.9149 27.1112L15.8957 27.0587L15.8406 26.9396L15.8291 26.8781L15.8022 26.8178L15.7753 26.7512L15.7561 26.7051L15.701 26.5718L15.6818 26.5116L15.6472 26.4591ZM13.6868 35.3817H27.3719L20.3865 37.6841L13.6868 35.3817Z" fill="#EAEAEA"/>
</g>
<defs>
<clipPath id="clip0_323_541">
<rect width="41" height="41" fill="white"/>
</clipPath>
</defs>
</svg>
