<svg width="2108" height="588" viewBox="0 0 2108 588" fill="none" xmlns="http://www.w3.org/2000/svg">
<g clip-path="url(#clip0_1847_15)">
<path d="M0 294C0 455.733 0.4 588 0.933333 588C1.73333 588 110.4 567.867 123.733 565.2L130.667 563.867V455.867V348H172H213.333V328.267C213.333 317.467 213.733 289.333 214.267 265.6L215.067 222.667H172.933H130.667V175.333V128H179.333C206.133 128 228 127.733 228 127.333C228 125.867 238.667 12 239.333 6.26664L240.133 -3.06666e-05H120H0V294Z" fill="white"/>
<path d="M1994.4 17.1998L1888 25.9998V291.6V557.2L1892.4 557.866C1896.27 558.533 2102.27 573.466 2106.4 573.333C2107.6 573.333 2108 559.2 2108 507.333V441.333H2062.67H2017.33V393.333V345.333H2056H2094.67V288V230.666H2054.67H2014.67V192.666V154.666L2017.73 154.133C2019.33 153.733 2032.93 153.2 2048 152.666C2063.07 152.266 2082.67 151.6 2091.73 151.066L2108 150.266V79.1998V7.99977L2104.4 8.13311C2102.27 8.26644 2052.8 12.2664 1994.4 17.1998Z" fill="white"/>
<path d="M1311.33 35.6C1312.67 48.9333 1327.87 249.867 1327.6 250.133C1327.47 250.4 1307.87 202.267 1284 143.2C1260.27 84.1333 1240.27 35.2 1239.73 34.2667C1238.93 32.8 1202.13 39.6 1141.73 52.4L1136 53.6V282.8V512H1195.33H1254.67L1254 502.4C1252.67 484.533 1247.73 336.8 1248.27 330.933C1248.67 325.733 1252.67 334.8 1290.53 426.267C1313.47 481.867 1332.93 527.867 1333.47 528.667C1334.27 529.467 1352.8 528.267 1384.27 525.6C1411.6 523.2 1434 521.067 1434 520.933C1434.13 520.8 1433.47 424.667 1432.53 307.333C1431.6 190 1430.8 79.2 1430.8 60.9333L1430.67 28H1370.67H1310.53L1311.33 35.6Z" fill="white"/>
<path d="M372.667 36.1331C292.933 41.4664 249.067 95.9997 235.2 206.666C232.4 229.6 231.2 307.466 233.2 334.666C239.867 422.933 263.733 480.266 306.133 509.466C328.933 525.066 363.2 533.466 397.067 531.466C435.6 529.333 461.867 518.4 485.467 494.8C504.8 475.466 515.333 457.333 525.467 426.4C539.6 383.2 546 318.666 542.8 251.466C539.2 176.266 527.867 129.466 504.533 93.5997C482.267 59.4664 447.067 39.0664 406 36.5331C399.467 36.1331 392.533 35.7331 390.667 35.4664C388.8 35.3331 380.8 35.5997 372.667 36.1331ZM391.467 140.933C401.2 151.466 405.333 193.466 405.333 283.333C405.333 394 398.4 440 383.2 430.133C376.667 425.733 371.733 404.266 369.333 368.666C367.6 342.666 367.6 223.6 369.333 198.666C371.867 163.466 376.4 144 383.2 139.333C386.933 136.666 387.6 136.8 391.467 140.933Z" fill="white"/>
<path d="M560 278.533V521.333H621.2H682.267L683.067 504.4C683.6 494.933 684.667 464.266 685.467 436C686.267 407.733 687.333 382.933 687.867 380.933C688.533 378.133 694.267 396.133 711.867 456.933C724.667 500.8 735.467 537.2 736 537.733C737.067 538.933 862.133 529.066 863.467 527.733C863.867 527.2 850 483.6 832.667 430.533L801.2 334.266L807.867 328.4C830 309.066 848.267 271.733 853.467 234.8C855.733 218.666 854.267 178.666 850.8 163.866C837.467 105.866 802.133 60.7996 757.067 43.9996C737.467 36.7996 739.067 36.933 646.4 36.3996L560 35.8663V278.533ZM697.467 150.8C706.933 155.466 714.667 167.466 718.8 184C721.6 195.066 721.2 230.133 718.133 241.333C712.4 262.4 702.267 274.666 687.067 279.333L684 280.133V213.466V146.666L688.4 147.6C690.667 148 694.8 149.466 697.467 150.8Z" fill="white"/>
<path d="M857.333 99.3336V161.334H891.333H925.333V340V518.667H989.334H1053.33V350.667V182.667H1088H1122.67V120.667V58.667L1119.73 58.1336C1116.93 57.467 862.667 37.2003 859.067 37.3336C857.733 37.3336 857.333 50.667 857.333 99.3336Z" fill="white"/>
<path d="M1458.67 292.667V534.667H1524.67H1590.67V292.667V50.667H1524.67H1458.67V292.667Z" fill="white"/>
<path d="M1741.33 67.467C1669.07 71.3337 1608.93 74.5337 1607.73 74.5337C1605.47 74.667 1605.33 78.5337 1605.33 137.334V200H1639.33H1673.33V375.334V550.667H1738H1802.67V368V185.334H1838.67H1874.67V122.667C1874.67 88.1337 1874.27 60.1337 1873.73 60.1337C1873.07 60.267 1813.6 63.467 1741.33 67.467Z" fill="white"/>
</g>
<defs>
<clipPath id="clip0_1847_15">
<rect width="2108" height="588" fill="white"/>
</clipPath>
</defs>
</svg>
