<svg width="512" height="512" viewBox="0 0 512 512" fill="none" xmlns="http://www.w3.org/2000/svg">
<g clip-path="url(#clip0_392_188)">
<path d="M429.247 199.397C412.841 173.082 390.119 150.47 363.546 134.01C345.395 122.741 325.814 114.493 305.283 109.432V56.848H206.717V109.434C186.171 114.501 166.598 122.746 148.461 134.006C121.881 150.47 99.1587 173.082 82.7617 199.381C62.4267 231.828 51.6797 269.277 51.6797 307.679C51.6797 347.986 63.4677 387.034 85.7647 420.589C101.913 444.971 123.595 465.984 148.438 481.338C180.576 501.398 217.771 512 256 512C294.229 512 331.424 501.398 363.533 481.357C388.406 465.984 410.088 444.972 426.23 420.6C448.532 387.034 460.321 347.987 460.321 307.68C460.321 269.274 449.573 231.826 429.247 199.397ZM144.701 155.705V196.381H103.982C115.33 180.904 129.125 167.122 144.701 155.705ZM93.5387 212.261H144.702V299.74H67.7427C69.0387 268.853 77.8747 238.866 93.5387 212.261ZM144.701 459.672C130.932 449.578 118.488 437.564 107.919 424.146H144.701V459.672ZM144.702 408.265H96.7037C79.0407 380.359 69.1077 348.561 67.7317 315.619H144.703V408.265H144.702ZM367.299 155.705C382.87 167.118 396.665 180.899 408.017 196.381H367.299V155.705ZM367.298 212.261H418.461C434.123 238.857 442.961 268.848 444.256 299.74H367.298V212.261ZM351.419 145.236V196.381H263.94V119.425C274.585 119.881 285.226 121.237 295.689 123.509C315.313 127.688 334.037 134.991 351.419 145.236ZM351.419 212.261V299.74H263.94V212.261H351.419ZM248.06 495.936C217.086 494.643 187.089 485.792 160.581 470.108V424.145H248.06V495.936ZM248.06 408.265H160.581V315.619H248.06V408.265ZM248.06 196.381H209.489V212.261H248.06V299.74H160.581V212.261H188.819V196.381H160.581V145.235C177.959 134.993 196.686 127.688 216.34 123.502C226.778 121.236 237.415 119.881 248.059 119.425V196.381H248.06ZM222.597 106.15V72.728H289.404V106.152C267.313 102.472 244.65 102.476 222.597 106.15ZM351.419 470.109C324.929 485.789 294.925 494.643 263.94 495.936V424.145H351.419V470.109ZM367.299 459.671V424.146H404.082C393.517 437.557 381.076 449.57 367.299 459.671ZM415.296 408.265H367.299V359.358H351.419V408.265H263.94V315.619H351.419V338.688H367.299V315.619H444.27C442.892 348.558 432.961 380.353 415.296 408.265Z" fill="white"/>
<path d="M227.391 0V44.115H243.271V15.88H268.733V44.115H284.613V0H227.391Z" fill="white"/>
<path d="M175.711 227.389V266.336H191.591V243.269H204.323V227.389H175.711Z" fill="white"/>
<path d="M279.07 330.746V369.694H294.95V346.626H307.681V330.746H279.07Z" fill="white"/>
<path d="M111.304 356.587H90.6328V372.467H111.304V356.587Z" fill="white"/>
<path d="M131.968 335.912H111.297V351.792H131.968V335.912Z" fill="white"/>
<path d="M297.343 160.206H276.672V176.086H297.343V160.206Z" fill="white"/>
<path d="M318.015 139.531H297.344V155.411H318.015V139.531Z" fill="white"/>
<path d="M421.374 263.563H400.703V279.443H421.374V263.563Z" fill="white"/>
<path d="M204.319 366.92H183.648V382.8H204.319V366.92Z" fill="white"/>
<path d="M307.687 449.611H287.016V465.491H307.687V449.611Z" fill="white"/>
</g>
<defs>
<clipPath id="clip0_392_188">
<rect width="512" height="512" fill="white"/>
</clipPath>
</defs>
</svg>
