<svg width="47" height="47" viewBox="0 0 47 47" fill="none" xmlns="http://www.w3.org/2000/svg">
<path d="M18.8047 36.5396L25.3436 38.9101V14.6924C25.3444 14.5361 25.3827 14.3823 25.4554 14.2439C25.5281 14.1055 25.633 13.9867 25.7612 13.8973C25.8895 13.808 26.0373 13.7507 26.1923 13.7304C26.3472 13.7102 26.5048 13.7274 26.6517 13.7808C27.0345 13.9188 27.3654 14.1715 27.5994 14.5044C27.8333 14.8373 27.9589 15.2343 27.9589 15.6412V25.6346C28.7081 25.8941 29.5089 25.9689 30.2932 25.8527C31.0775 25.7366 31.8222 25.4329 32.464 24.9674C33.1059 24.5019 33.6259 23.8884 33.98 23.179C34.334 22.4696 34.5117 21.6852 34.4978 20.8925C34.4949 18.805 33.8493 16.769 32.6487 15.0612C31.4482 13.3535 29.7509 12.0569 27.7876 11.3476L18.8047 8.09085V36.5396Z" fill="#EAEAEA"/>
<path d="M16.1845 26.0302L6.11862 29.6335C5.79787 29.749 5.50307 29.9267 5.25115 30.1564C4.99923 30.3861 4.79514 30.6633 4.65059 30.972C4.50603 31.2808 4.42386 31.6151 4.40878 31.9557C4.39371 32.2962 4.44602 32.6365 4.56273 32.9568C4.94331 33.728 5.56715 34.3525 6.33796 34.734C9.61738 36.2574 13.3622 36.4394 16.7739 35.2412C16.8709 35.2118 18.7087 34.6077 18.8047 34.5753V30.783L13.1402 32.7786C12.2594 33.0946 11.2979 33.1053 10.4103 32.8089C10.1469 32.7139 9.72979 32.194 10.5249 31.8298L16.1845 29.8244V26.0302ZM25.3436 28.5055C25.5923 28.4203 27.5252 27.7515 27.7758 27.6771C32.0608 26.3983 36.6485 26.5739 40.8232 28.1765C41.1637 28.3085 41.4747 28.5065 41.7384 28.7591C42.0021 29.0117 42.2133 29.3139 42.3598 29.6484C42.5063 29.9829 42.5852 30.3431 42.5921 30.7082C42.5989 31.0733 42.5335 31.4362 42.3997 31.7759C42.2471 32.1519 42.0158 32.4908 41.7212 32.7698C41.4267 33.0489 41.0757 33.2615 40.692 33.3935L25.3436 38.9111V35.1168L36.8253 31.0024C36.9724 30.9493 37.0995 30.8522 37.1893 30.7243C37.2792 30.5964 37.3274 30.4439 37.3274 30.2876C37.3274 30.1312 37.2792 29.9787 37.1893 29.8508C37.0995 29.7229 36.9724 29.6258 36.8253 29.5728C35.557 29.1156 34.1685 29.118 32.9018 29.5796L25.3436 32.2988V28.5055Z" fill="#EAEAEA"/>
</svg>
