<svg width="41" height="41" viewBox="0 0 41 41" fill="none" xmlns="http://www.w3.org/2000/svg">
<path d="M18.4553 40.9148C15.2075 40.5788 12.0869 39.4718 9.35334 37.6861C7.05221 36.187 6.53203 35.5695 6.53203 34.3395C6.53203 31.8666 9.2534 27.5334 13.9095 22.5955C16.5514 19.7896 20.2363 16.5019 20.6335 16.5916C21.4073 16.7658 27.5983 22.8005 29.9148 25.6398C33.5792 30.1318 35.2653 33.8116 34.4095 35.4516C33.7586 36.6969 29.7201 39.1339 26.7553 40.0692C24.3107 40.8405 21.0998 41.1685 18.4553 40.9148ZM3.42371 31.7667C1.50953 28.8352 0.543464 25.9498 0.077089 21.7729C-0.076661 20.3918 -0.020286 19.6051 0.428152 16.7761C0.986776 13.2475 2.99578 9.16545 5.41221 6.6542C6.43978 5.58564 6.53203 5.56001 7.78509 5.98026C9.30978 6.49276 10.937 7.61514 13.4559 9.89576L14.9268 11.2257L14.1247 12.2123C10.3937 16.7914 6.45771 23.2823 4.97146 27.2977C4.16428 29.4809 3.83884 31.6719 4.18734 32.5841C4.42053 33.1991 4.20528 32.9685 3.41859 31.7667H3.42371ZM36.995 32.2664C37.1847 31.3439 36.9463 29.6526 36.3852 27.9434C35.1731 24.2458 31.1192 17.3654 27.3959 12.6889L26.2248 11.2154L27.4907 10.0521C29.1461 8.53251 30.2967 7.62282 31.5395 6.84895C32.5158 6.24164 33.9149 5.70095 34.5145 5.70095C34.8861 5.70095 36.1904 7.05395 37.2436 8.52995C38.9175 10.919 40.0884 13.6234 40.685 16.4788C41.0771 18.3443 41.1104 22.3367 40.7465 24.1971C40.4049 25.8633 39.8896 27.4891 39.209 29.0479C38.7503 30.055 37.61 32.0101 37.1078 32.6456C36.8515 32.9736 36.849 32.9711 36.995 32.2664ZM18.7962 5.00139C17.0793 4.13014 14.4297 3.19482 12.9639 2.9437C12.3206 2.84531 11.6693 2.80841 11.019 2.83351C9.81203 2.89501 9.86584 2.83351 11.8031 1.91614C13.3219 1.18738 14.9268 0.65356 16.5796 0.327385C18.6296 -0.105677 22.4887 -0.10824 24.508 0.314573C26.6861 0.775823 29.2563 1.72907 30.7041 2.62082L31.1346 2.88476L30.148 2.83351C28.1852 2.73614 25.3305 3.52539 22.2607 5.01932C21.3356 5.47032 20.5284 5.82907 20.4695 5.81882C19.9027 5.56335 19.3464 5.29074 18.7962 5.00139Z" fill="#EAEAEA"/>
</svg>
